<svg xmlns="http://www.w3.org/2000/svg" id="mainsvg" width="1296.01591796875" height="1047.2" viewBox="-10 -10 1178.1962890625 952"><defs><marker id="arrow" viewBox="0 0 10 10" refX="10" refY="5" markerWidth="5" markerHeight="5" orient="auto-start-reverse" fill="black"><path d="M 0 0 L 10 5 L 0 10 z"/></marker><filter id="shadowOLD" x="-50%" y="-50%" width="250%" height="250%"><feDropShadow flood-color="black" flood-opacity="0.3" dx="1" dy="1" stdDeviation="2"> </feDropShadow></filter><filter id="shadow-path" filterUnits="userSpaceOnUse" x="-10" y="-10" width="1178.1962890625px" height="952px"><feDropShadow flood-color="black" flood-opacity="0.1" dx="1" dy="1" stdDeviation="1"> </feDropShadow></filter><filter id="shadow" filterUnits="userSpaceOnUse" x="-10" y="-10" width="1278.1962890625px" height="1052px"><feDropShadow flood-color="black" flood-opacity="0.1" dx="1" dy="1" stdDeviation="1"> </feDropShadow></filter></defs><rect x="-10" y="-10" width="1178.1962890625" height="952" fill="#fff"/><g transform="translate(0, 0)"><rect width="83.578125" height="33" stroke="black" fill="white" stroke-width="2" transform="translate(0, 0)" rx="3"/><text fill="black" font-size="16" font-weight="normal" transform="translate(8, 8)" alignment-baseline="middle" font-family="Arial"><tspan x="0" dy="16" font-family="Arial" font-size="16" font-weight="normal">End-User</tspan></text></g><g transform="translate(167.42578125, 0)"><rect width="131.59375" height="33" stroke="black" fill="white" stroke-width="2" transform="translate(0, 0)" rx="3"/><text fill="black" font-size="16" font-weight="normal" transform="translate(8, 8)" alignment-baseline="middle" font-family="Arial"><tspan x="0" dy="16" font-family="Arial" font-size="16" font-weight="normal">Browser (Agent)</tspan></text></g><g transform="translate(471.005859375, 0)"><rect width="104.9140625" height="33" stroke="black" fill="white" stroke-width="2" transform="translate(0, 0)" rx="3"/><text fill="black" font-size="16" font-weight="normal" transform="translate(8, 8)" alignment-baseline="middle" font-family="Arial"><tspan x="0" dy="16" font-family="Arial" font-size="16" font-weight="normal">Static server</tspan></text></g><g transform="translate(599.919921875, 0)"><rect width="136.9296875" height="33" stroke="black" fill="white" stroke-width="2" transform="translate(0, 0)" rx="3"/><text fill="black" font-size="16" font-weight="normal" transform="translate(8, 8)" alignment-baseline="middle" font-family="Arial"><tspan x="0" dy="16" font-family="Arial" font-size="16" font-weight="normal">Server/Controller</tspan></text></g><g transform="translate(914.8291015625, 0)"><rect width="59.578125" height="33" stroke="black" fill="white" stroke-width="2" transform="translate(0, 0)" rx="3"/><text fill="black" font-size="16" font-weight="normal" transform="translate(8, 8)" alignment-baseline="middle" font-family="Arial"><tspan x="0" dy="16" font-family="Arial" font-size="16" font-weight="normal">Model</tspan></text></g><g transform="translate(998.4072265625, 0)"><rect width="159.7890625" height="33" stroke="black" fill="white" stroke-width="2" transform="translate(0, 0)" rx="3"/><text fill="black" font-size="16" font-weight="normal" transform="translate(8, 8)" alignment-baseline="middle" font-family="Arial"><tspan x="0" dy="16" font-family="Arial" font-size="16" font-weight="normal">Aylien/Guardian API</tspan></text></g><path d="M 41.7890625,72 L 233.22265625 72" fill="none" stroke="black" stroke-dasharray="none" stroke-width="2" marker-end="url(#arrow)"/><path d="M 233.22265625,107 L 523.462890625 107" fill="none" stroke="black" stroke-dasharray="none" stroke-width="2" marker-end="url(#arrow)"/><path d="M 523.462890625,142 L 233.22265625 142" fill="none" stroke="black" stroke-dasharray="none" stroke-width="2" marker-end="url(#arrow)"/><path d="M 233.22265625,177 L 523.462890625 177" fill="none" stroke="black" stroke-dasharray="none" stroke-width="2" marker-end="url(#arrow)"/><path d="M 523.462890625,212 L 233.22265625 212" fill="none" stroke="black" stroke-dasharray="none" stroke-width="2" marker-end="url(#arrow)"/><path d="M 233.22265625,247 L 523.462890625 247" fill="none" stroke="black" stroke-dasharray="none" stroke-width="2" marker-end="url(#arrow)"/><path d="M 523.462890625,282 L 233.22265625 282" fill="none" stroke="black" stroke-dasharray="none" stroke-width="2" marker-end="url(#arrow)"/><path d="M 233.22265625,317 L 668.384765625 317" fill="none" stroke="black" stroke-dasharray="none" stroke-width="2" marker-end="url(#arrow)"/><path d="M 668.384765625,352 L 233.22265625 352" fill="none" stroke="black" stroke-dasharray="none" stroke-width="2" marker-end="url(#arrow)"/><path d="M 233.22265625,360 L 247.22265625 360 L 247.22265625 383 L 233.22265625 383" fill="none" stroke="black" stroke-dasharray="none" stroke-width="2" marker-end="url(#arrow)"/><path d="M 233.22265625,395 L 247.22265625 395 L 247.22265625 418 L 233.22265625 418" fill="none" stroke="black" stroke-dasharray="none" stroke-width="2" marker-end="url(#arrow)"/><path d="M 233.22265625,430 L 247.22265625 430 L 247.22265625 453 L 233.22265625 453" fill="none" stroke="black" stroke-dasharray="none" stroke-width="2" marker-end="url(#arrow)"/><path d="M 233.22265625,492 L 41.7890625 492" fill="none" stroke="black" stroke-dasharray="none" stroke-width="2" marker-end="url(#arrow)"/><path d="M 41.7890625,527 L 233.22265625 527" fill="none" stroke="black" stroke-dasharray="none" stroke-width="2" marker-end="url(#arrow)"/><path d="M 233.22265625,562 L 668.384765625 562" fill="none" stroke="black" stroke-dasharray="none" stroke-width="2" marker-end="url(#arrow)"/><path d="M 668.384765625,570 L 682.384765625 570 L 682.384765625 593 L 668.384765625 593" fill="none" stroke="black" stroke-dasharray="none" stroke-width="2" marker-end="url(#arrow)"/><path d="M 668.384765625,632 L 944.6181640625 632" fill="none" stroke="black" stroke-dasharray="none" stroke-width="2" marker-end="url(#arrow)"/><path d="M 668.384765625,667 L 1078.3017578125 667" fill="none" stroke="black" stroke-dasharray="none" stroke-width="2" marker-end="url(#arrow)"/><path d="M 1078.3017578125,702 L 668.384765625 702" fill="none" stroke="black" stroke-dasharray="none" stroke-width="2" marker-end="url(#arrow)"/><path d="M 668.384765625,710 L 682.384765625 710 L 682.384765625 733 L 668.384765625 733" fill="none" stroke="black" stroke-dasharray="none" stroke-width="2" marker-end="url(#arrow)"/><path d="M 668.384765625,772 L 944.6181640625 772" fill="none" stroke="black" stroke-dasharray="none" stroke-width="2" marker-end="url(#arrow)"/><path d="M 944.6181640625,807 L 668.384765625 807" fill="none" stroke="black" stroke-dasharray="none" stroke-width="2" marker-end="url(#arrow)"/><path d="M 668.384765625,842 L 233.22265625 842" fill="none" stroke="black" stroke-dasharray="none" stroke-width="2" marker-end="url(#arrow)"/><path d="M 233.22265625,850 L 247.22265625 850 L 247.22265625 873 L 233.22265625 873" fill="none" stroke="black" stroke-dasharray="none" stroke-width="2" marker-end="url(#arrow)"/><path d="M 233.22265625,912 L 41.7890625 912" fill="none" stroke="black" stroke-dasharray="none" stroke-width="2" marker-end="url(#arrow)"/><path d="M 41.7890625,33 L 41.7890625 932" fill="none" stroke="black" stroke-dasharray="none" stroke-width="2"/><path d="M 233.22265625,33 L 233.22265625 932" fill="none" stroke="black" stroke-dasharray="none" stroke-width="2"/><path d="M 523.462890625,33 L 523.462890625 932" fill="none" stroke="black" stroke-dasharray="none" stroke-width="2"/><path d="M 668.384765625,33 L 668.384765625 932" fill="none" stroke="black" stroke-dasharray="none" stroke-width="2"/><path d="M 944.6181640625,33 L 944.6181640625 932" fill="none" stroke="black" stroke-dasharray="none" stroke-width="2"/><path d="M 1078.3017578125,33 L 1078.3017578125 932" fill="none" stroke="black" stroke-dasharray="none" stroke-width="2"/><g transform="translate(106.4013671875, 45)"><rect width="62.208984375" height="23" stroke="none" fill="white" stroke-width="0" transform="translate(0, 0)" rx="2"/><text fill="black" font-size="14" font-weight="normal" transform="translate(4, 4)" alignment-baseline="middle" font-family="Arial"><tspan x="0" dy="14" font-family="Arial" font-size="14" font-weight="normal">Visit root</tspan></text></g><g transform="translate(294.97412109375, 80)"><rect width="166.7373046875" height="23" stroke="none" fill="white" stroke-width="0" transform="translate(0, 0)" rx="2"/><text fill="black" font-size="14" font-weight="normal" transform="translate(4, 4)" alignment-baseline="middle" font-family="Arial"><tspan x="0" dy="14" font-family="Arial" font-size="14" font-weight="normal">GET request for localhost</tspan></text></g><g transform="translate(257.22265625, 115)"><rect width="242.240234375" height="23" stroke="none" fill="white" stroke-width="0" transform="translate(0, 0)" rx="2"/><text fill="black" font-size="14" font-weight="normal" transform="translate(4, 4)" alignment-baseline="middle" font-family="Arial"><tspan x="0" dy="14" font-family="Arial" font-size="14" font-weight="normal">localhost GET request response body</tspan></text></g><g transform="translate(345.5634765625, 150)"><rect width="65.55859375" height="23" stroke="none" fill="white" stroke-width="0" transform="translate(0, 0)" rx="2"/><text fill="black" font-size="14" font-weight="normal" transform="translate(4, 4)" alignment-baseline="middle" font-family="Arial"><tspan x="0" dy="14" font-family="Arial" font-size="14" font-weight="normal">GET /css</tspan></text></g><g transform="translate(341.6669921875, 185)"><rect width="73.3515625" height="23" stroke="none" fill="white" stroke-width="0" transform="translate(0, 0)" rx="2"/><text fill="black" font-size="14" font-weight="normal" transform="translate(4, 4)" alignment-baseline="middle" font-family="Arial"><tspan x="0" dy="14" font-family="Arial" font-size="14" font-weight="normal">Serve /css</tspan></text></g><g transform="translate(351.00830078125, 220)"><rect width="54.6689453125" height="23" stroke="none" fill="white" stroke-width="0" transform="translate(0, 0)" rx="2"/><text fill="black" font-size="14" font-weight="normal" transform="translate(4, 4)" alignment-baseline="middle" font-family="Arial"><tspan x="0" dy="14" font-family="Arial" font-size="14" font-weight="normal">GET /js</tspan></text></g><g transform="translate(347.11181640625, 255)"><rect width="62.4619140625" height="23" stroke="none" fill="white" stroke-width="0" transform="translate(0, 0)" rx="2"/><text fill="black" font-size="14" font-weight="normal" transform="translate(4, 4)" alignment-baseline="middle" font-family="Arial"><tspan x="0" dy="14" font-family="Arial" font-size="14" font-weight="normal">Serve /js</tspan></text></g><g transform="translate(399.341796875, 290)"><rect width="102.923828125" height="23" stroke="none" fill="white" stroke-width="0" transform="translate(0, 0)" rx="2"/><text fill="black" font-size="14" font-weight="normal" transform="translate(4, 4)" alignment-baseline="middle" font-family="Arial"><tspan x="0" dy="14" font-family="Arial" font-size="14" font-weight="normal">Execute scripts</tspan></text></g><g transform="translate(267.04248046875, 325)"><rect width="367.5224609375" height="23" stroke="none" fill="white" stroke-width="0" transform="translate(0, 0)" rx="2"/><text fill="black" font-size="14" font-weight="normal" transform="translate(4, 4)" alignment-baseline="middle" font-family="Arial"><tspan x="0" dy="14" font-family="Arial" font-size="14" font-weight="normal">Execute IIFEs passing objects/functions/listeners to Agent</tspan></text></g><g transform="translate(253.22265625, 360)"><rect width="115.392578125" height="23" stroke="none" fill="white" stroke-width="0" transform="translate(0, 0)" rx="2"/><text fill="black" font-size="14" font-weight="normal" transform="translate(4, 4)" alignment-baseline="middle" font-family="Arial"><tspan x="0" dy="14" font-family="Arial" font-size="14" font-weight="normal">Load HTML body</tspan></text></g><g transform="translate(253.22265625, 395)"><rect width="183.8408203125" height="23" stroke="none" fill="white" stroke-width="0" transform="translate(0, 0)" rx="2"/><text fill="black" font-size="14" font-weight="normal" transform="translate(4, 4)" alignment-baseline="middle" font-family="Arial"><tspan x="0" dy="14" font-family="Arial" font-size="14" font-weight="normal">Complete DOM construction</tspan></text></g><g transform="translate(253.22265625, 430)"><rect width="85.8134765625" height="23" stroke="none" fill="white" stroke-width="0" transform="translate(0, 0)" rx="2"/><text fill="black" font-size="14" font-weight="normal" transform="translate(4, 4)" alignment-baseline="middle" font-family="Arial"><tspan x="0" dy="14" font-family="Arial" font-size="14" font-weight="normal">Render view</tspan></text></g><g transform="translate(93.037109375, 465)"><rect width="88.9375" height="23" stroke="none" fill="white" stroke-width="0" transform="translate(0, 0)" rx="2"/><text fill="black" font-size="14" font-weight="normal" transform="translate(4, 4)" alignment-baseline="middle" font-family="Arial"><tspan x="0" dy="14" font-family="Arial" font-size="14" font-weight="normal">Display page</tspan></text></g><g transform="translate(84.4853515625, 500)"><rect width="106.041015625" height="23" stroke="none" fill="white" stroke-width="0" transform="translate(0, 0)" rx="2"/><text fill="black" font-size="14" font-weight="normal" transform="translate(4, 4)" alignment-baseline="middle" font-family="Arial"><tspan x="0" dy="14" font-family="Arial" font-size="14" font-weight="normal">User interaction</tspan></text></g><g transform="translate(407.11767578125, 535)"><rect width="87.3720703125" height="23" stroke="none" fill="white" stroke-width="0" transform="translate(0, 0)" rx="2"/><text fill="black" font-size="14" font-weight="normal" transform="translate(4, 4)" alignment-baseline="middle" font-family="Arial"><tspan x="0" dy="14" font-family="Arial" font-size="14" font-weight="normal">Event trigger</tspan></text></g><g transform="translate(688.384765625, 570)"><rect width="158.96484375" height="23" stroke="none" fill="white" stroke-width="0" transform="translate(0, 0)" rx="2"/><text fill="black" font-size="14" font-weight="normal" transform="translate(4, 4)" alignment-baseline="middle" font-family="Arial"><tspan x="0" dy="14" font-family="Arial" font-size="14" font-weight="normal">Event listeners triggered</tspan></text></g><g transform="translate(727.40869140625, 605)"><rect width="158.185546875" height="23" stroke="none" fill="white" stroke-width="0" transform="translate(0, 0)" rx="2"/><text fill="black" font-size="14" font-weight="normal" transform="translate(4, 4)" alignment-baseline="middle" font-family="Arial"><tspan x="0" dy="14" font-family="Arial" font-size="14" font-weight="normal">Callback function(event)</tspan></text></g><g transform="translate(800.09521484375, 640)"><rect width="146.49609375" height="23" stroke="none" fill="white" stroke-width="0" transform="translate(0, 0)" rx="2"/><text fill="black" font-size="14" font-weight="normal" transform="translate(4, 4)" alignment-baseline="middle" font-family="Arial"><tspan x="0" dy="14" font-family="Arial" font-size="14" font-weight="normal">(opt) API GET request</tspan></text></g><g transform="translate(769.37109375, 675)"><rect width="207.9443359375" height="23" stroke="none" fill="white" stroke-width="0" transform="translate(0, 0)" rx="2"/><text fill="black" font-size="14" font-weight="normal" transform="translate(4, 4)" alignment-baseline="middle" font-family="Arial"><tspan x="0" dy="14" font-family="Arial" font-size="14" font-weight="normal">(opt) API GET response (JSON)</tspan></text></g><g transform="translate(688.384765625, 710)"><rect width="158.9580078125" height="23" stroke="none" fill="white" stroke-width="0" transform="translate(0, 0)" rx="2"/><text fill="black" font-size="14" font-weight="normal" transform="translate(4, 4)" alignment-baseline="middle" font-family="Arial"><tspan x="0" dy="14" font-family="Arial" font-size="14" font-weight="normal">(opt) JSON data parsing</tspan></text></g><g transform="translate(758.529296875, 745)"><rect width="95.9443359375" height="23" stroke="none" fill="white" stroke-width="0" transform="translate(0, 0)" rx="2"/><text fill="black" font-size="14" font-weight="normal" transform="translate(4, 4)" alignment-baseline="middle" font-family="Arial"><tspan x="0" dy="14" font-family="Arial" font-size="14" font-weight="normal">Compute data</tspan></text></g><g transform="translate(692.384765625, 780)"><rect width="228.2333984375" height="23" stroke="none" fill="white" stroke-width="0" transform="translate(0, 0)" rx="2"/><text fill="black" font-size="14" font-weight="normal" transform="translate(4, 4)" alignment-baseline="middle" font-family="Arial"><tspan x="0" dy="14" font-family="Arial" font-size="14" font-weight="normal">Callback function output (response)</tspan></text></g><g transform="translate(398.16259765625, 815)"><rect width="105.2822265625" height="23" stroke="none" fill="white" stroke-width="0" transform="translate(0, 0)" rx="2"/><text fill="black" font-size="14" font-weight="normal" transform="translate(4, 4)" alignment-baseline="middle" font-family="Arial"><tspan x="0" dy="14" font-family="Arial" font-size="14" font-weight="normal">Event response</tspan></text></g><g transform="translate(253.22265625, 850)"><rect width="85.8134765625" height="23" stroke="none" fill="white" stroke-width="0" transform="translate(0, 0)" rx="2"/><text fill="black" font-size="14" font-weight="normal" transform="translate(4, 4)" alignment-baseline="middle" font-family="Arial"><tspan x="0" dy="14" font-family="Arial" font-size="14" font-weight="normal">Render view</tspan></text></g><g transform="translate(65.7890625, 885)"><rect width="143.43359375" height="23" stroke="none" fill="white" stroke-width="0" transform="translate(0, 0)" rx="2"/><text fill="black" font-size="14" font-weight="normal" transform="translate(4, 4)" alignment-baseline="middle" font-family="Arial"><tspan x="0" dy="14" font-family="Arial" font-size="14" font-weight="normal">Display updated page</tspan></text></g></svg>